<?xml version="1.0" encoding="UTF-8"?>
<svg xmlns="http://www.w3.org/2000/svg" xmlns:xlink="http://www.w3.org/1999/xlink" width="300" height="200" viewBox="0 0 300 200">
<path fill="none" stroke-width="1" stroke-linecap="butt" stroke-linejoin="miter" stroke="rgb(0%, 0%, 0%)" stroke-opacity="1" stroke-miterlimit="10" d="M 210 86.667969 C 210 119.804688 183.136719 146.667969 150 146.667969 C 116.863281 146.667969 90 119.804688 90 86.667969 C 90 53.53125 116.863281 26.667969 150 26.667969 C 183.136719 26.667969 210 53.53125 210 86.667969 "/>
<path fill-rule="nonzero" fill="rgb(39.607843%, 14.509804%, 32.941176%)" fill-opacity="1" d="M 210 86.667969 C 210 119.804688 183.136719 146.667969 150 146.667969 C 116.863281 146.667969 90 119.804688 90 86.667969 C 90 53.53125 116.863281 26.667969 150 26.667969 C 183.136719 26.667969 210 53.53125 210 86.667969 "/>
<path fill-rule="nonzero" fill="rgb(20.392157%, 3.529412%, 63.921569%)" fill-opacity="1" d="M 135.492188 187.304688 C 130.582031 187.304688 126.6875 185.820312 123.800781 182.855469 C 120.914062 179.890625 119.472656 175.71875 119.472656 170.34375 C 119.472656 165.15625 120.917969 161.023438 123.8125 157.9375 C 126.703125 154.855469 130.605469 153.3125 135.511719 153.3125 C 136.816406 153.3125 137.988281 153.386719 139.027344 153.535156 C 140.066406 153.679688 141.0625 153.886719 142.015625 154.148438 C 142.761719 154.367188 143.574219 154.667969 144.453125 155.050781 C 145.332031 155.429688 146.042969 155.761719 146.585938 156.039062 L 146.585938 163.839844 L 145.75 163.839844 C 145.355469 163.488281 144.859375 163.066406 144.257812 162.574219 C 143.65625 162.085938 142.976562 161.605469 142.214844 161.136719 C 141.453125 160.667969 140.613281 160.269531 139.699219 159.9375 C 138.78125 159.609375 137.828125 159.445312 136.832031 159.445312 C 135.644531 159.445312 134.554688 159.628906 133.566406 160.003906 C 132.578125 160.378906 131.636719 161.027344 130.742188 161.949219 C 129.921875 162.785156 129.253906 163.910156 128.734375 165.332031 C 128.214844 166.753906 127.953125 168.429688 127.953125 170.363281 C 127.953125 172.402344 128.226562 174.109375 128.765625 175.496094 C 129.308594 176.878906 130.019531 177.996094 130.898438 178.847656 C 131.746094 179.667969 132.695312 180.257812 133.742188 180.625 C 134.789062 180.992188 135.835938 181.175781 136.875 181.175781 C 137.957031 181.175781 138.992188 180.996094 139.972656 180.636719 C 140.953125 180.277344 141.78125 179.878906 142.457031 179.4375 C 143.1875 178.984375 143.832031 178.523438 144.390625 178.054688 C 144.945312 177.585938 145.429688 177.167969 145.839844 176.800781 L 146.585938 176.800781 L 146.585938 184.492188 C 145.984375 184.769531 145.289062 185.089844 144.5 185.449219 C 143.707031 185.808594 142.894531 186.113281 142.058594 186.359375 C 141.035156 186.667969 140.074219 186.902344 139.179688 187.0625 C 138.289062 187.222656 137.058594 187.304688 135.492188 187.304688 Z M 158.632812 186.667969 L 150.945312 186.667969 L 150.945312 161.992188 L 158.632812 161.992188 L 158.632812 186.667969 M 158.855469 158.476562 L 150.726562 158.476562 L 150.726562 152.480469 L 158.855469 152.480469 Z M 181.511719 169.265625 L 180.875 169.265625 C 180.582031 169.164062 180.15625 169.085938 179.601562 169.035156 C 179.042969 168.984375 178.429688 168.957031 177.753906 168.957031 C 176.949219 168.957031 176.101562 169.074219 175.214844 169.308594 C 174.332031 169.542969 173.46875 169.824219 172.632812 170.144531 L 172.632812 186.667969 L 164.945312 186.667969 L 164.945312 161.992188 L 172.632812 161.992188 L 172.632812 165.53125 C 172.984375 165.207031 173.472656 164.800781 174.097656 164.3125 C 174.71875 163.820312 175.285156 163.429688 175.796875 163.136719 C 176.355469 162.796875 177.003906 162.507812 177.742188 162.265625 C 178.484375 162.027344 179.183594 161.90625 179.84375 161.90625 C 180.089844 161.90625 180.367188 161.914062 180.675781 161.925781 C 180.984375 161.941406 181.261719 161.964844 181.511719 161.992188 Z M 118 141.644531 "/>
</svg>
