<?xml version="1.0" encoding="UTF-8"?>
<svg xmlns="http://www.w3.org/2000/svg" xmlns:xlink="http://www.w3.org/1999/xlink" width="300" height="200" viewBox="0 0 300 200">
<path fill="none" stroke-width="1" stroke-linecap="butt" stroke-linejoin="miter" stroke="rgb(0%, 0%, 0%)" stroke-opacity="1" stroke-miterlimit="10" d="M 80 136.667969 L 160 20 L 230 135 "/>
<path fill-rule="nonzero" fill="rgb(100%, 0%, 0%)" fill-opacity="1" d="M 80 136.667969 L 160 20 L 230 135 Z M 80 136.667969 "/>
<path fill-rule="nonzero" fill="rgb(0%, 50.196078%, 0%)" fill-opacity="1" d="M 139.546875 180.230469 L 139.546875 175.089844 C 138.242188 175.21875 137.1875 175.332031 136.382812 175.429688 C 135.574219 175.523438 134.785156 175.710938 134.007812 175.988281 C 133.335938 176.222656 132.8125 176.578125 132.4375 177.054688 C 132.0625 177.53125 131.875 178.164062 131.875 178.957031 C 131.875 180.113281 132.1875 180.90625 132.8125 181.339844 C 133.433594 181.773438 134.351562 181.988281 135.570312 181.988281 C 136.242188 181.988281 136.929688 181.832031 137.632812 181.527344 C 138.335938 181.21875 138.972656 180.785156 139.546875 180.230469 M 139.546875 184.054688 C 139.019531 184.492188 138.546875 184.886719 138.128906 185.238281 C 137.710938 185.589844 137.148438 185.941406 136.445312 186.292969 C 135.757812 186.632812 135.089844 186.886719 134.4375 187.0625 C 133.785156 187.238281 132.875 187.328125 131.703125 187.328125 C 129.519531 187.328125 127.707031 186.59375 126.261719 185.128906 C 124.820312 183.664062 124.097656 181.820312 124.097656 179.59375 C 124.097656 177.761719 124.464844 176.28125 125.195312 175.152344 C 125.929688 174.027344 126.984375 173.132812 128.359375 172.472656 C 129.753906 171.800781 131.414062 171.332031 133.347656 171.066406 C 135.28125 170.804688 137.363281 170.597656 139.589844 170.453125 L 139.589844 170.320312 C 139.589844 168.957031 139.085938 168.015625 138.085938 167.496094 C 137.082031 166.976562 135.574219 166.714844 133.570312 166.714844 C 132.660156 166.714844 131.597656 166.882812 130.382812 167.210938 C 129.167969 167.539062 127.980469 167.960938 126.824219 168.472656 L 126.164062 168.472656 L 126.164062 162.519531 C 126.925781 162.300781 128.15625 162.039062 129.855469 161.738281 C 131.554688 161.441406 133.269531 161.289062 134.996094 161.289062 C 139.246094 161.289062 142.339844 161.996094 144.28125 163.410156 C 146.222656 164.824219 147.191406 166.980469 147.191406 169.878906 L 147.191406 186.667969 L 139.546875 186.667969 Z M 166.546875 180.230469 L 166.546875 175.089844 C 165.242188 175.21875 164.1875 175.332031 163.382812 175.429688 C 162.574219 175.523438 161.785156 175.710938 161.007812 175.988281 C 160.335938 176.222656 159.8125 176.578125 159.4375 177.054688 C 159.0625 177.53125 158.875 178.164062 158.875 178.957031 C 158.875 180.113281 159.1875 180.90625 159.8125 181.339844 C 160.433594 181.773438 161.351562 181.988281 162.570312 181.988281 C 163.242188 181.988281 163.929688 181.832031 164.632812 181.527344 C 165.335938 181.21875 165.972656 180.785156 166.546875 180.230469 M 166.546875 184.054688 C 166.019531 184.492188 165.546875 184.886719 165.128906 185.238281 C 164.710938 185.589844 164.148438 185.941406 163.445312 186.292969 C 162.757812 186.632812 162.089844 186.886719 161.4375 187.0625 C 160.785156 187.238281 159.875 187.328125 158.703125 187.328125 C 156.519531 187.328125 154.707031 186.59375 153.261719 185.128906 C 151.820312 183.664062 151.097656 181.820312 151.097656 179.59375 C 151.097656 177.761719 151.464844 176.28125 152.195312 175.152344 C 152.929688 174.027344 153.984375 173.132812 155.359375 172.472656 C 156.753906 171.800781 158.414062 171.332031 160.347656 171.066406 C 162.28125 170.804688 164.363281 170.597656 166.589844 170.453125 L 166.589844 170.320312 C 166.589844 168.957031 166.085938 168.015625 165.085938 167.496094 C 164.082031 166.976562 162.574219 166.714844 160.570312 166.714844 C 159.660156 166.714844 158.597656 166.882812 157.382812 167.210938 C 156.167969 167.539062 154.980469 167.960938 153.824219 168.472656 L 153.164062 168.472656 L 153.164062 162.519531 C 153.925781 162.300781 155.15625 162.039062 156.855469 161.738281 C 158.554688 161.441406 160.269531 161.289062 161.996094 161.289062 C 166.246094 161.289062 169.339844 161.996094 171.28125 163.410156 C 173.222656 164.824219 174.191406 166.980469 174.191406 169.878906 L 174.191406 186.667969 L 166.546875 186.667969 Z M 123 141.644531 "/>
</svg>
