<?xml version="1.0" encoding="UTF-8"?>
<svg xmlns="http://www.w3.org/2000/svg" xmlns:xlink="http://www.w3.org/1999/xlink" width="300" height="200" viewBox="0 0 300 200">
<path fill="none" stroke-width="1" stroke-linecap="butt" stroke-linejoin="miter" stroke="rgb(0%, 0%, 0%)" stroke-opacity="1" stroke-miterlimit="10" d="M 250 100 C 250 155.226562 205.226562 200 150 200 C 94.773438 200 50 155.226562 50 100 C 50 44.773438 94.773438 0 150 0 C 205.226562 0 250 44.773438 250 100 "/>
<path fill-rule="nonzero" fill="rgb(0%, 0%, 100%)" fill-opacity="1" d="M 250 100 C 250 155.226562 205.226562 200 150 200 C 94.773438 200 50 155.226562 50 100 C 50 44.773438 94.773438 0 150 0 C 205.226562 0 250 44.773438 250 100 "/>
<path fill-rule="nonzero" fill="rgb(100%, 0%, 0%)" fill-opacity="1" d="M 125.6875 117.222656 L 125.6875 106.039062 C 125.308594 105.863281 124.839844 105.714844 124.28125 105.597656 C 123.726562 105.480469 123.167969 105.421875 122.613281 105.421875 C 120.765625 105.421875 119.378906 106.019531 118.449219 107.214844 C 117.519531 108.40625 117.054688 110.074219 117.054688 112.210938 C 117.054688 113.28125 117.121094 114.1875 117.261719 114.925781 C 117.402344 115.664062 117.660156 116.320312 118.042969 116.890625 C 118.40625 117.449219 118.886719 117.871094 119.480469 118.15625 C 120.074219 118.441406 120.832031 118.585938 121.753906 118.585938 C 122.441406 118.585938 123.121094 118.46875 123.789062 118.234375 C 124.453125 118 125.085938 117.660156 125.6875 117.222656 M 133.378906 122.164062 C 133.378906 124.449219 133.046875 126.390625 132.390625 127.988281 C 131.730469 129.585938 130.828125 130.828125 129.6875 131.722656 C 128.542969 132.632812 127.175781 133.289062 125.578125 133.691406 C 123.980469 134.09375 122.207031 134.292969 120.261719 134.292969 C 118.621094 134.292969 117.0625 134.1875 115.589844 133.976562 C 114.121094 133.761719 112.839844 133.519531 111.757812 133.238281 L 111.757812 127.066406 L 112.65625 127.066406 C 113.039062 127.210938 113.488281 127.375 114.007812 127.546875 C 114.53125 127.726562 115.054688 127.886719 115.582031 128.03125 C 116.210938 128.191406 116.824219 128.324219 117.425781 128.429688 C 118.027344 128.53125 118.640625 128.582031 119.273438 128.582031 C 120.574219 128.582031 121.664062 128.445312 122.535156 128.175781 C 123.40625 127.902344 124.0625 127.519531 124.5 127.023438 C 124.941406 126.507812 125.25 125.90625 125.425781 125.207031 C 125.601562 124.511719 125.6875 123.636719 125.6875 122.582031 L 125.6875 122.121094 C 124.824219 122.882812 123.824219 123.496094 122.6875 123.957031 C 121.554688 124.417969 120.386719 124.648438 119.183594 124.648438 C 115.992188 124.648438 113.527344 123.609375 111.789062 121.527344 C 110.054688 119.449219 109.1875 116.285156 109.1875 112.035156 C 109.1875 110.101562 109.453125 108.367188 109.988281 106.828125 C 110.523438 105.289062 111.265625 103.980469 112.21875 102.894531 C 113.125 101.855469 114.226562 101.054688 115.515625 100.488281 C 116.804688 99.925781 118.144531 99.644531 119.535156 99.644531 C 120.796875 99.644531 121.921875 99.804688 122.917969 100.125 C 123.914062 100.449219 124.824219 100.882812 125.644531 101.421875 L 125.929688 100.324219 L 133.378906 100.324219 Z M 153.6875 117.222656 L 153.6875 106.039062 C 153.308594 105.863281 152.839844 105.714844 152.28125 105.597656 C 151.726562 105.480469 151.167969 105.421875 150.613281 105.421875 C 148.765625 105.421875 147.378906 106.019531 146.449219 107.214844 C 145.519531 108.40625 145.054688 110.074219 145.054688 112.210938 C 145.054688 113.28125 145.121094 114.1875 145.261719 114.925781 C 145.402344 115.664062 145.660156 116.320312 146.042969 116.890625 C 146.40625 117.449219 146.886719 117.871094 147.480469 118.15625 C 148.074219 118.441406 148.832031 118.585938 149.753906 118.585938 C 150.441406 118.585938 151.121094 118.46875 151.789062 118.234375 C 152.453125 118 153.085938 117.660156 153.6875 117.222656 M 161.378906 122.164062 C 161.378906 124.449219 161.046875 126.390625 160.390625 127.988281 C 159.730469 129.585938 158.828125 130.828125 157.6875 131.722656 C 156.542969 132.632812 155.175781 133.289062 153.578125 133.691406 C 151.980469 134.09375 150.207031 134.292969 148.261719 134.292969 C 146.621094 134.292969 145.0625 134.1875 143.589844 133.976562 C 142.121094 133.761719 140.839844 133.519531 139.757812 133.238281 L 139.757812 127.066406 L 140.65625 127.066406 C 141.039062 127.210938 141.488281 127.375 142.007812 127.546875 C 142.53125 127.726562 143.054688 127.886719 143.582031 128.03125 C 144.210938 128.191406 144.824219 128.324219 145.425781 128.429688 C 146.027344 128.53125 146.640625 128.582031 147.273438 128.582031 C 148.574219 128.582031 149.664062 128.445312 150.535156 128.175781 C 151.40625 127.902344 152.0625 127.519531 152.5 127.023438 C 152.941406 126.507812 153.25 125.90625 153.425781 125.207031 C 153.601562 124.511719 153.6875 123.636719 153.6875 122.582031 L 153.6875 122.121094 C 152.824219 122.882812 151.824219 123.496094 150.6875 123.957031 C 149.554688 124.417969 148.386719 124.648438 147.183594 124.648438 C 143.992188 124.648438 141.527344 123.609375 139.789062 121.527344 C 138.054688 119.449219 137.1875 116.285156 137.1875 112.035156 C 137.1875 110.101562 137.453125 108.367188 137.988281 106.828125 C 138.523438 105.289062 139.265625 103.980469 140.21875 102.894531 C 141.125 101.855469 142.226562 101.054688 143.515625 100.488281 C 144.804688 99.925781 146.144531 99.644531 147.535156 99.644531 C 148.796875 99.644531 149.921875 99.804688 150.917969 100.125 C 151.914062 100.449219 152.824219 100.882812 153.644531 101.421875 L 153.929688 100.324219 L 161.378906 100.324219 Z M 181.6875 117.222656 L 181.6875 106.039062 C 181.308594 105.863281 180.839844 105.714844 180.28125 105.597656 C 179.726562 105.480469 179.167969 105.421875 178.613281 105.421875 C 176.765625 105.421875 175.378906 106.019531 174.449219 107.214844 C 173.519531 108.40625 173.054688 110.074219 173.054688 112.210938 C 173.054688 113.28125 173.121094 114.1875 173.261719 114.925781 C 173.402344 115.664062 173.660156 116.320312 174.042969 116.890625 C 174.40625 117.449219 174.886719 117.871094 175.480469 118.15625 C 176.074219 118.441406 176.832031 118.585938 177.753906 118.585938 C 178.441406 118.585938 179.121094 118.46875 179.789062 118.234375 C 180.453125 118 181.085938 117.660156 181.6875 117.222656 M 189.378906 122.164062 C 189.378906 124.449219 189.046875 126.390625 188.390625 127.988281 C 187.730469 129.585938 186.828125 130.828125 185.6875 131.722656 C 184.542969 132.632812 183.175781 133.289062 181.578125 133.691406 C 179.980469 134.09375 178.207031 134.292969 176.261719 134.292969 C 174.621094 134.292969 173.0625 134.1875 171.589844 133.976562 C 170.121094 133.761719 168.839844 133.519531 167.757812 133.238281 L 167.757812 127.066406 L 168.65625 127.066406 C 169.039062 127.210938 169.488281 127.375 170.007812 127.546875 C 170.53125 127.726562 171.054688 127.886719 171.582031 128.03125 C 172.210938 128.191406 172.824219 128.324219 173.425781 128.429688 C 174.027344 128.53125 174.640625 128.582031 175.273438 128.582031 C 176.574219 128.582031 177.664062 128.445312 178.535156 128.175781 C 179.40625 127.902344 180.0625 127.519531 180.5 127.023438 C 180.941406 126.507812 181.25 125.90625 181.425781 125.207031 C 181.601562 124.511719 181.6875 123.636719 181.6875 122.582031 L 181.6875 122.121094 C 180.824219 122.882812 179.824219 123.496094 178.6875 123.957031 C 177.554688 124.417969 176.386719 124.648438 175.183594 124.648438 C 171.992188 124.648438 169.527344 123.609375 167.789062 121.527344 C 166.054688 119.449219 165.1875 116.285156 165.1875 112.035156 C 165.1875 110.101562 165.453125 108.367188 165.988281 106.828125 C 166.523438 105.289062 167.265625 103.980469 168.21875 102.894531 C 169.125 101.855469 170.226562 101.054688 171.515625 100.488281 C 172.804688 99.925781 174.144531 99.644531 175.535156 99.644531 C 176.796875 99.644531 177.921875 99.804688 178.917969 100.125 C 179.914062 100.449219 180.824219 100.882812 181.644531 101.421875 L 181.929688 100.324219 L 189.378906 100.324219 Z M 108 79.976562 "/>
</svg>
