<?xml version="1.0" encoding="UTF-8"?>
<svg xmlns="http://www.w3.org/2000/svg" xmlns:xlink="http://www.w3.org/1999/xlink" width="300" height="200" viewBox="0 0 300 200">
<path fill="none" stroke-width="1" stroke-linecap="butt" stroke-linejoin="miter" stroke="rgb(0%, 0%, 0%)" stroke-opacity="1" stroke-miterlimit="10" d="M 0 200 L 150 0 L 300 200 L 0 200 "/>
<path fill-rule="nonzero" fill="rgb(50.196078%, 0%, 50.196078%)" fill-opacity="1" d="M 0 200 L 150 0 L 300 200 Z M 0 200 "/>
<path fill-rule="nonzero" fill="rgb(100%, 0%, 0%)" fill-opacity="1" d="M 130.390625 125.484375 C 127.257812 125.484375 124.976562 124.839844 123.546875 123.550781 C 122.121094 122.261719 121.40625 120.152344 121.40625 117.222656 L 121.40625 105.6875 L 118.460938 105.6875 L 118.460938 100.324219 L 121.40625 100.324219 L 121.40625 93.273438 L 129.097656 93.273438 L 129.097656 100.324219 L 136.5 100.324219 L 136.5 105.6875 L 129.097656 105.6875 L 129.097656 114.429688 C 129.097656 115.296875 129.101562 116.050781 129.117188 116.695312 C 129.132812 117.339844 129.25 117.917969 129.46875 118.429688 C 129.675781 118.941406 130.039062 119.347656 130.558594 119.648438 C 131.078125 119.949219 131.835938 120.101562 132.832031 120.101562 C 133.242188 120.101562 133.78125 120.011719 134.445312 119.835938 C 135.113281 119.660156 135.578125 119.5 135.84375 119.351562 L 136.5 119.351562 L 136.5 124.78125 C 135.664062 125 134.78125 125.171875 133.84375 125.296875 C 132.90625 125.421875 131.753906 125.484375 130.390625 125.484375 Z M 156.511719 107.597656 L 155.875 107.597656 C 155.582031 107.496094 155.15625 107.417969 154.601562 107.367188 C 154.042969 107.316406 153.429688 107.289062 152.753906 107.289062 C 151.949219 107.289062 151.101562 107.40625 150.214844 107.640625 C 149.332031 107.875 148.46875 108.15625 147.632812 108.476562 L 147.632812 125 L 139.945312 125 L 139.945312 100.324219 L 147.632812 100.324219 L 147.632812 103.863281 C 147.984375 103.539062 148.472656 103.132812 149.097656 102.644531 C 149.71875 102.152344 150.285156 101.761719 150.796875 101.46875 C 151.355469 101.128906 152.003906 100.839844 152.742188 100.597656 C 153.484375 100.359375 154.183594 100.238281 154.84375 100.238281 C 155.089844 100.238281 155.367188 100.246094 155.675781 100.257812 C 155.984375 100.273438 156.261719 100.296875 156.511719 100.324219 Z M 182.972656 100.324219 L 170.511719 134.054688 L 162.25 134.054688 L 165.988281 124.40625 L 156.933594 100.324219 L 165.019531 100.324219 L 170.207031 115.792969 L 175.0625 100.324219 Z M 118 79.976562 "/>
</svg>
