<?xml version="1.0" encoding="UTF-8"?>
<svg xmlns="http://www.w3.org/2000/svg" xmlns:xlink="http://www.w3.org/1999/xlink" width="300" height="200" viewBox="0 0 300 200">
<path fill="none" stroke-width="1" stroke-linecap="butt" stroke-linejoin="miter" stroke="rgb(0%, 0%, 0%)" stroke-opacity="1" stroke-miterlimit="10" d="M 100 36.667969 L 200 36.667969 L 200 136.667969 L 100 136.667969 Z M 100 36.667969 "/>
<path fill-rule="nonzero" fill="rgb(67.058824%, 75.686275%, 13.72549%)" fill-opacity="1" d="M 100 36.667969 L 200 36.667969 L 200 136.667969 L 100 136.667969 Z M 100 36.667969 "/>
<path fill-rule="nonzero" fill="rgb(0%, 7.058824%, 1.176471%)" fill-opacity="1" d="M 125.492188 187.261719 C 122.984375 187.261719 120.785156 187.019531 118.886719 186.535156 C 116.992188 186.054688 115.230469 185.453125 113.605469 184.734375 L 113.605469 176.957031 L 114.351562 176.957031 C 115.992188 178.347656 117.800781 179.417969 119.777344 180.164062 C 121.757812 180.910156 123.675781 181.285156 125.535156 181.285156 C 126.003906 181.285156 126.621094 181.234375 127.390625 181.128906 C 128.160156 181.027344 128.78125 180.867188 129.25 180.648438 C 129.820312 180.398438 130.304688 180.050781 130.699219 179.605469 C 131.09375 179.15625 131.292969 178.566406 131.292969 177.835938 C 131.292969 177.015625 130.96875 176.347656 130.324219 175.835938 C 129.679688 175.324219 128.910156 174.949219 128.019531 174.714844 C 126.90625 174.421875 125.714844 174.144531 124.449219 173.878906 C 123.179688 173.617188 121.996094 173.292969 120.898438 172.914062 C 118.363281 172.019531 116.546875 170.820312 115.449219 169.308594 C 114.351562 167.800781 113.800781 165.910156 113.800781 163.640625 C 113.800781 160.578125 115.097656 158.101562 117.691406 156.203125 C 120.285156 154.304688 123.519531 153.355469 127.402344 153.355469 C 129.351562 153.355469 131.289062 153.554688 133.214844 153.949219 C 135.140625 154.347656 136.867188 154.882812 138.390625 155.554688 L 138.390625 163.027344 L 137.664062 163.027344 C 136.449219 161.984375 134.964844 161.105469 133.214844 160.386719 C 131.464844 159.671875 129.664062 159.3125 127.820312 159.3125 C 127.101562 159.3125 126.457031 159.363281 125.886719 159.464844 C 125.316406 159.570312 124.714844 159.765625 124.085938 160.058594 C 123.570312 160.292969 123.128906 160.640625 122.753906 161.101562 C 122.382812 161.5625 122.195312 162.082031 122.195312 162.652344 C 122.195312 163.488281 122.492188 164.148438 123.085938 164.640625 C 123.679688 165.132812 124.824219 165.574219 126.523438 165.96875 C 127.621094 166.21875 128.679688 166.460938 129.699219 166.695312 C 130.71875 166.929688 131.804688 167.25 132.960938 167.660156 C 135.230469 168.480469 136.921875 169.585938 138.027344 170.96875 C 139.132812 172.351562 139.683594 174.179688 139.6875 176.449219 C 139.683594 179.703125 138.40625 182.316406 135.851562 184.292969 C 133.296875 186.273438 129.84375 187.261719 125.492188 187.261719 Z M 165.378906 195.722656 L 157.6875 195.722656 L 157.6875 184.25 C 157.144531 184.691406 156.582031 185.117188 155.996094 185.535156 C 155.410156 185.953125 154.851562 186.28125 154.328125 186.515625 C 153.667969 186.820312 153.066406 187.039062 152.523438 187.164062 C 151.984375 187.285156 151.25 187.347656 150.328125 187.347656 C 147.527344 187.347656 145.304688 186.183594 143.660156 183.855469 C 142.011719 181.527344 141.1875 178.414062 141.1875 174.515625 C 141.1875 172.363281 141.464844 170.496094 142.023438 168.914062 C 142.578125 167.332031 143.347656 165.957031 144.328125 164.785156 C 145.222656 163.714844 146.304688 162.867188 147.582031 162.246094 C 148.855469 161.621094 150.203125 161.3125 151.625 161.3125 C 152.839844 161.3125 153.898438 161.464844 154.796875 161.773438 C 155.699219 162.082031 156.648438 162.519531 157.644531 163.089844 L 157.929688 161.992188 L 165.378906 161.992188 L 165.378906 195.722656 M 157.6875 179.855469 L 157.6875 167.75 C 157.308594 167.558594 156.808594 167.402344 156.195312 167.277344 C 155.578125 167.152344 155.050781 167.089844 154.613281 167.089844 C 152.765625 167.089844 151.378906 167.734375 150.449219 169.023438 C 149.519531 170.3125 149.054688 172.113281 149.054688 174.429688 C 149.054688 176.859375 149.421875 178.617188 150.164062 179.703125 C 150.902344 180.785156 152.101562 181.328125 153.753906 181.328125 C 154.429688 181.328125 155.109375 181.195312 155.796875 180.933594 C 156.488281 180.667969 157.117188 180.3125 157.6875 179.855469 Z M 187.511719 169.265625 L 186.875 169.265625 C 186.582031 169.164062 186.15625 169.085938 185.601562 169.035156 C 185.042969 168.984375 184.429688 168.957031 183.753906 168.957031 C 182.949219 168.957031 182.101562 169.074219 181.214844 169.308594 C 180.332031 169.542969 179.46875 169.824219 178.632812 170.144531 L 178.632812 186.667969 L 170.945312 186.667969 L 170.945312 161.992188 L 178.632812 161.992188 L 178.632812 165.53125 C 178.984375 165.207031 179.472656 164.800781 180.097656 164.3125 C 180.71875 163.820312 181.285156 163.429688 181.796875 163.136719 C 182.355469 162.796875 183.003906 162.507812 183.742188 162.265625 C 184.484375 162.027344 185.183594 161.90625 185.84375 161.90625 C 186.089844 161.90625 186.367188 161.914062 186.675781 161.925781 C 186.984375 161.941406 187.261719 161.964844 187.511719 161.992188 Z M 112 141.644531 "/>
</svg>
