<?xml version="1.0" encoding="UTF-8"?>
<svg xmlns="http://www.w3.org/2000/svg" xmlns:xlink="http://www.w3.org/1999/xlink" width="300" height="200" viewBox="0 0 300 200">
<path fill="none" stroke-width="1" stroke-linecap="butt" stroke-linejoin="miter" stroke="rgb(0%, 0%, 0%)" stroke-opacity="1" stroke-miterlimit="10" d="M 80 136.667969 L 160 20 L 230 135 "/>
<path fill-rule="nonzero" fill="rgb(37.254902%, 29.019608%, 65.098039%)" fill-opacity="1" d="M 80 136.667969 L 160 20 L 230 135 Z M 80 136.667969 "/>
<path fill-rule="nonzero" fill="rgb(0%, 50.196078%, 0%)" fill-opacity="1" d="M 120.867188 186.667969 L 131.921875 153.949219 L 140.886719 153.949219 L 151.9375 186.667969 L 143.476562 186.667969 L 141.433594 179.988281 L 131.152344 179.988281 L 129.109375 186.667969 L 120.867188 186.667969 M 139.632812 174.054688 L 136.292969 163.265625 L 132.953125 174.054688 Z M 162.632812 186.667969 L 154.945312 186.667969 L 154.945312 152.480469 L 162.632812 152.480469 Z M 176.632812 186.667969 L 168.945312 186.667969 L 168.945312 161.992188 L 176.632812 161.992188 L 176.632812 186.667969 M 176.855469 158.476562 L 168.726562 158.476562 L 168.726562 152.480469 L 176.855469 152.480469 Z M 121 141.644531 "/>
</svg>
